<?xml version="1.0" standalone="no"?>
<!DOCTYPE svg PUBLIC "-//W3C//DTD SVG 20010904//EN"
 "http://www.w3.org/TR/2001/REC-SVG-20010904/DTD/svg10.dtd">
<svg version="1.0" xmlns="http://www.w3.org/2000/svg"
 width="512.000000pt" height="512.000000pt" viewBox="0 0 512.000000 512.000000"
 preserveAspectRatio="xMidYMid meet">

<g transform="translate(0.000000,512.000000) scale(0.100000,-0.100000)"
fill="#000000" stroke="none">
<path d="M732 3954 c-121 -60 -167 -202 -104 -325 110 -217 434 -157 459 84
20 194 -179 329 -355 241z"/>
<path d="M1657 3886 c-48 -18 -76 -42 -93 -83 -31 -72 -8 -147 59 -197 l28
-21 1378 -3 1377 -2 44 23 c105 55 108 196 7 271 l-28 21 -1367 2 c-1135 2
-1373 0 -1405 -11z"/>
<path d="M732 2774 c-140 -70 -177 -255 -74 -374 64 -76 159 -104 254 -76 100
29 164 107 175 211 20 192 -180 326 -355 239z"/>
<path d="M1677 2710 c-76 -14 -127 -77 -127 -156 0 -46 28 -94 73 -128 l28
-21 1382 -2 1382 -3 39 23 c104 59 102 209 -4 271 -35 21 -42 21 -1385 22
-742 1 -1367 -1 -1388 -6z"/>
<path d="M732 1594 c-177 -88 -176 -343 2 -437 57 -30 165 -30 221 0 144 76
178 258 72 380 -52 59 -105 82 -183 83 -45 0 -73 -6 -112 -26z"/>
<path d="M1671 1530 c-140 -33 -165 -228 -36 -290 41 -20 62 -20 1409 -20
1340 0 1368 0 1405 20 109 55 109 211 1 274 -35 21 -43 21 -1390 23 -745 0
-1370 -2 -1389 -7z"/>
</g>
</svg>
