<?xml version="1.0" encoding="utf-8"?>
<svg version="1.1" id="Layer_1" xmlns="http://www.w3.org/2000/svg" xmlns:xlink="http://www.w3.org/1999/xlink" x="0px" y="0px"
	 viewBox="0 0 512 512" style="enable-background:new 0 0 512 512;" xml:space="preserve">
  <g>
    <path class="fill" d="M474.1,289.6c5.4-0.9,9.9-6.1,9.9-11.6v-44.1c0-5.5-4.4-10.7-9.9-11.6l-41.9-6.7c-5.4-0.9-11.3-5.8-13-11.1
		l-11.5-27.7c-2.5-4.9-1.9-12.6,1.4-17l24.9-34.3c3.2-4.5,2.7-11.3-1.2-15.2l-31.2-31.2c-3.9-3.9-10.7-4.4-15.2-1.2l-34.3,24.9
		c-4.5,3.2-12.1,3.8-17,1.4l-27.7-11.5c-5.2-1.7-10.2-7.6-11.1-13l-6.7-41.9c-0.9-5.4-6.1-9.9-11.6-9.9h-44.1
		c-5.5,0-10.7,4.4-11.6,9.9l-6.7,41.9c-0.9,5.4-5.8,11.3-11.1,13l-27.7,11.5c-4.9,2.5-12.6,1.9-17-1.4L125.5,78
		c-4.5-3.2-11.3-2.7-15.2,1.2l-31.2,31.2c-3.9,3.9-4.4,10.7-1.2,15.2l24.9,34.3c3.2,4.5,3.8,12.1,1.4,17l-11.5,27.7
		c-1.7,5.2-7.6,10.2-13,11.1l-41.9,6.7c-5.4,0.9-9.9,6.1-9.9,11.6v44.1c0,5.5,4.4,10.7,9.9,11.6l41.9,6.7c5.4,0.9,11.3,5.8,13,11.1
		l11.5,27.7c2.5,4.9,1.9,12.6-1.4,17L78,386.5c-3.2,4.5-2.7,11.3,1.2,15.2l31.2,31.2c3.9,3.9,10.7,4.4,15.2,1.2l34.3-24.9
		c4.5-3.2,12.1-3.8,17-1.4l27.7,11.5c5.2,1.7,10.2,7.6,11.1,13l6.7,41.9c0.9,5.4,6.1,9.9,11.6,9.9h44.1c5.5,0,10.7-4.4,11.6-9.9
		l6.7-41.9c0.9-5.4,5.8-11.3,11.1-13l27.7-11.5c4.9-2.5,12.6-1.9,17,1.4l34.3,24.9c4.5,3.2,11.3,2.7,15.2-1.2l31.2-31.2
		c3.9-3.9,4.4-10.7,1.2-15.2l-24.9-34.3c-3.2-4.5-3.8-12.1-1.4-17l11.5-27.7c1.7-5.2,7.6-10.2,13-11.1L474.1,289.6z M256,335.3
		c-43.8,0-79.3-35.5-79.3-79.3s35.5-79.3,79.3-79.3s79.3,35.5,79.3,79.3S299.8,335.3,256,335.3z"/>
    <path class="st1" d="M474.1,289.6c5.4-0.9,9.9-6.1,9.9-11.6v-44.1c0-5.5-4.4-10.7-9.9-11.6l-41.9-6.7c-5.4-0.9-11.3-5.8-13-11.1
		l-11.5-27.7c-2.5-4.9-1.9-12.6,1.4-17l24.9-34.3c3.2-4.5,2.7-11.3-1.2-15.2l-31.2-31.2c-3.9-3.9-10.7-4.4-15.2-1.2l-34.3,24.9
		c-4.5,3.2-12.1,3.8-17,1.4l-27.7-11.5c-5.2-1.7-10.2-7.6-11.1-13l-6.7-41.9c-0.9-5.4-6.1-9.9-11.6-9.9h-44.1
		c-5.5,0-10.7,4.4-11.6,9.9l-6.7,41.9c-0.9,5.4-5.8,11.3-11.1,13l-27.7,11.5c-4.9,2.5-12.6,1.9-17-1.4L125.5,78
		c-4.5-3.2-11.3-2.7-15.2,1.2l-31.2,31.2c-3.9,3.9-4.4,10.7-1.2,15.2l24.9,34.3c3.2,4.5,3.8,12.1,1.4,17l-11.5,27.7
		c-1.7,5.2-7.6,10.2-13,11.1l-41.9,6.7c-5.4,0.9-9.9,6.1-9.9,11.6v44.1c0,5.5,4.4,10.7,9.9,11.6l41.9,6.7c5.4,0.9,11.3,5.8,13,11.1
		l11.5,27.7c2.5,4.9,1.9,12.6-1.4,17L78,386.5c-3.2,4.5-2.7,11.3,1.2,15.2l31.2,31.2c3.9,3.9,10.7,4.4,15.2,1.2l34.3-24.9
		c4.5-3.2,12.1-3.8,17-1.4l27.7,11.5c5.2,1.7,10.2,7.6,11.1,13l6.7,41.9c0.9,5.4,6.1,9.9,11.6,9.9h44.1c5.5,0,10.7-4.4,11.6-9.9
		l6.7-41.9c0.9-5.4,5.8-11.3,11.1-13l27.7-11.5c4.9-2.5,12.6-1.9,17,1.4l34.3,24.9c4.5,3.2,11.3,2.7,15.2-1.2l31.2-31.2
		c3.9-3.9,4.4-10.7,1.2-15.2l-24.9-34.3c-3.2-4.5-3.8-12.1-1.4-17l11.5-27.7c1.7-5.2,7.6-10.2,13-11.1L474.1,289.6z M256,335.3
		c-43.8,0-79.3-35.5-79.3-79.3s35.5-79.3,79.3-79.3s79.3,35.5,79.3,79.3S299.8,335.3,256,335.3z"/>
  </g>
</svg>